<?xml version="1.0" encoding="UTF-8"?><svg id="Capa_1" xmlns="http://www.w3.org/2000/svg" viewBox="0 0 701.73 91.83"><rect x="0" y="38.5" width="17.56" height="17.54"/><polygon points="97.44 .18 92.51 .18 49.74 91.83 55.49 91.83 58.95 84.63 132.09 84.63 61.05 78.98 94.98 7.02 97.44 .18"/><polygon points="97.44 .18 94.98 7.02 129.9 78.98 61.05 78.98 132.09 84.63 135.55 91.83 141.4 91.83 97.44 .18"/><polygon points="173.05 .27 167.3 .27 167.3 45.96 167.31 46.74 167.34 47.55 167.36 48.37 167.41 49.18 167.48 49.99 167.55 50.79 167.63 51.59 167.74 52.39 167.86 53.19 167.99 53.98 168.14 54.75 168.29 55.54 168.47 56.32 168.65 57.08 168.85 57.85 169.07 58.62 169.29 59.37 169.53 60.12 169.79 60.87 170.06 61.62 170.34 62.36 170.64 63.1 170.95 63.84 170.95 63.84 171.28 64.59 171.62 65.33 171.98 66.06 172.33 66.79 172.72 67.5 173.1 68.21 173.49 68.91 173.91 69.6 174.33 70.28 174.75 70.95 175.2 71.62 175.65 72.26 176.11 72.92 176.59 73.55 177.08 74.18 177.57 74.8 178.08 75.41 178.61 76.01 179.13 76.6 179.68 77.19 180.24 77.77 180.8 78.33 180.8 78.34 181.37 78.9 181.95 79.46 182.53 80 183.13 80.54 183.74 81.05 184.34 81.56 184.96 82.06 185.6 82.55 186.23 83.03 186.87 83.5 187.53 83.95 188.2 84.39 188.86 84.82 189.54 85.24 190.23 85.64 190.93 86.04 191.64 86.43 192.36 86.8 193.07 87.17 193.81 87.51 194.55 87.86 195.3 88.18 195.34 88.19 196.07 88.5 196.81 88.8 197.55 89.09 198.29 89.35 199.04 89.6 199.79 89.85 200.54 90.08 201.3 90.28 202.08 90.48 202.84 90.67 203.62 90.84 204.4 91 205.18 91.14 205.97 91.27 206.76 91.39 207.56 91.5 208.36 91.58 209.17 91.66 209.98 91.72 210.8 91.77 211.62 91.81 212.44 91.82 213.26 91.83 214.04 91.82 214.86 91.81 215.67 91.77 216.48 91.72 217.3 91.66 218.11 91.59 218.91 91.5 219.7 91.39 220.49 91.28 221.28 91.15 222.07 91 222.84 90.84 223.62 90.67 224.39 90.48 225.15 90.28 225.92 90.07 226.68 89.84 227.43 89.6 228.18 89.35 228.92 89.08 229.67 88.79 230.4 88.49 231.14 88.18 231.23 88.15 231.98 87.82 232.72 87.48 233.46 87.13 234.18 86.76 234.9 86.39 213.26 86.18 213.19 86.18 212.36 86.17 211.54 86.14 210.71 86.11 209.89 86.05 209.09 85.98 208.28 85.89 207.48 85.8 206.68 85.68 205.89 85.55 205.12 85.39 204.33 85.24 203.57 85.06 202.79 84.87 202.04 84.65 201.28 84.43 200.53 84.19 199.79 83.94 199.05 83.66 198.31 83.38 197.58 83.08 197.35 82.98 196.6 82.65 195.86 82.3 195.14 81.94 194.42 81.58 193.72 81.19 193.01 80.8 192.32 80.39 191.64 79.98 190.97 79.54 190.32 79.09 189.66 78.63 189.02 78.16 188.4 77.68 187.77 77.19 187.16 76.67 186.56 76.15 185.97 75.61 185.38 75.06 184.81 74.5 184.56 74.25 184.01 73.68 183.47 73.1 182.95 72.5 182.42 71.9 181.92 71.28 181.43 70.66 180.96 70.03 180.49 69.39 180.04 68.73 179.6 68.07 179.17 67.39 178.74 66.72 178.33 66.02 177.94 65.32 177.56 64.6 177.19 63.88 176.83 63.15 176.48 62.4 176.15 61.65 176.13 61.57 175.83 60.85 175.54 60.12 175.27 59.38 175.02 58.63 174.78 57.88 174.55 57.13 174.35 56.36 174.16 55.59 173.98 54.82 173.81 54.04 173.67 53.26 173.54 52.46 173.43 51.68 173.32 50.88 173.24 50.07 173.17 49.26 173.12 48.44 173.09 47.62 173.06 46.8 173.05 45.96 173.05 .27"/><polygon points="259.23 .27 253.48 .27 253.48 45.96 253.48 46.07 253.47 46.89 253.44 47.73 253.41 48.54 253.35 49.36 253.28 50.16 253.19 50.97 253.09 51.77 252.97 52.56 252.82 53.35 252.68 54.13 252.51 54.91 252.32 55.67 252.12 56.43 251.91 57.2 251.68 57.95 251.44 58.7 251.18 59.45 250.89 60.19 250.61 60.92 250.3 61.65 250.14 61.99 249.81 62.74 249.45 63.48 249.09 64.21 248.71 64.93 248.33 65.64 247.92 66.33 247.52 67.03 247.09 67.71 246.65 68.37 246.2 69.03 245.74 69.68 245.27 70.32 244.79 70.95 244.3 71.57 243.78 72.18 243.26 72.77 242.73 73.36 242.19 73.94 241.62 74.5 241.46 74.67 240.89 75.23 240.3 75.78 239.7 76.3 239.1 76.83 238.49 77.33 237.86 77.83 237.22 78.31 236.58 78.77 235.94 79.23 235.27 79.67 234.6 80.1 233.91 80.51 233.22 80.92 232.51 81.31 231.81 81.69 231.08 82.05 230.35 82.41 229.62 82.74 228.86 83.08 228.15 83.38 227.41 83.66 226.66 83.94 225.92 84.19 225.17 84.43 224.4 84.65 223.64 84.87 222.88 85.06 222.1 85.24 221.33 85.4 220.54 85.55 219.75 85.68 218.95 85.8 218.17 85.89 217.36 85.99 216.54 86.05 215.73 86.11 214.92 86.14 214.1 86.17 213.26 86.18 234.9 86.39 235.61 86.01 236.31 85.62 237 85.21 237.68 84.8 238.36 84.37 239.01 83.92 239.67 83.47 240.32 83.01 240.96 82.53 241.59 82.04 242.21 81.55 242.82 81.04 243.41 80.53 244.01 79.99 244.59 79.45 245.17 78.9 245.73 78.33 246.28 77.77 246.82 77.2 247.37 76.61 247.9 76.02 248.41 75.42 248.92 74.8 249.41 74.18 249.9 73.55 250.38 72.92 250.83 72.27 251.29 71.62 251.74 70.95 252.17 70.28 252.59 69.6 253 68.91 253.4 68.21 253.79 67.5 254.17 66.79 254.54 66.06 254.9 65.33 255.24 64.58 255.58 63.84 255.88 63.15 256.17 62.41 256.46 61.67 256.72 60.92 256.99 60.17 257.22 59.42 257.45 58.67 257.67 57.9 257.87 57.13 258.06 56.36 258.23 55.59 258.39 54.8 258.54 54.03 258.67 53.24 258.79 52.44 258.89 51.65 258.98 50.85 259.06 50.04 259.12 49.23 259.17 48.42 259.2 47.61 259.22 46.79 259.23 45.96 259.23 .27"/><polygon points="354.42 52.44 348.5 52.44 374.04 91.83 379.97 91.83 354.42 52.44"/><polygon points="369.34 5.53 353.52 5.93 353.67 5.93 354.49 5.95 355.29 6 356.09 6.08 356.89 6.2 357.67 6.36 358.44 6.54 359.21 6.74 359.97 6.99 360.71 7.26 361.45 7.57 362.01 7.82 362.75 8.18 363.47 8.56 364.17 8.97 364.85 9.4 365.5 9.85 366.15 10.32 366.75 10.81 367.35 11.32 367.92 11.85 368.39 12.32 368.94 12.9 369.45 13.51 369.94 14.13 370.39 14.79 370.83 15.46 371.24 16.14 371.62 16.85 371.98 17.58 372.3 18.33 372.36 18.47 372.66 19.21 372.93 19.95 373.17 20.72 373.37 21.48 373.55 22.25 373.7 23.04 373.8 23.83 373.89 24.64 373.93 25.44 373.95 26.26 373.95 26.42 373.92 27.24 373.87 28.05 373.78 28.85 373.67 29.64 373.52 30.41 373.34 31.19 373.12 31.95 372.88 32.71 372.61 33.45 372.3 34.19 372 34.86 371.63 35.59 371.25 36.3 370.85 37 370.42 37.67 369.96 38.33 369.49 38.96 368.98 39.58 368.47 40.18 367.92 40.76 367.46 41.23 366.87 41.77 366.27 42.28 365.65 42.77 365 43.23 364.33 43.66 363.64 44.08 362.93 44.46 362.2 44.81 361.45 45.14 361.32 45.2 360.58 45.5 359.83 45.77 359.06 46.01 358.3 46.21 357.52 46.38 356.74 46.52 355.95 46.64 355.15 46.71 354.34 46.76 353.52 46.79 293.42 46.79 369.74 46.87 370.36 46.38 370.96 45.86 371.55 45.33 372.12 44.77 372.43 44.46 372.98 43.9 373.5 43.3 374.01 42.71 374.49 42.08 374.96 41.44 375.41 40.79 375.84 40.11 376.25 39.42 376.64 38.71 377 37.98 377.36 37.23 377.68 36.48 377.71 36.4 378.02 35.66 378.31 34.93 378.56 34.18 378.79 33.43 379 32.67 379.18 31.89 379.34 31.12 379.48 30.33 379.59 29.53 379.67 28.73 379.73 27.92 379.77 27.1 379.78 26.26 379.77 25.46 379.73 24.65 379.67 23.84 379.6 23.03 379.49 22.23 379.36 21.44 379.21 20.67 379.03 19.89 378.82 19.13 378.6 18.37 378.35 17.62 378.07 16.88 377.77 16.14 377.61 15.75 377.25 15.02 376.88 14.29 376.49 13.58 376.07 12.89 375.64 12.21 375.2 11.56 374.73 10.91 374.24 10.28 373.74 9.67 373.22 9.08 372.68 8.49 372.12 7.93 371.75 7.57 371.18 7.04 370.58 6.51 369.96 6.01 369.34 5.53"/><polygon points="353.52 .27 287.67 .27 287.67 91.83 293.42 91.83 293.42 52.44 348.5 52.44 354.42 52.44 353.52 52.44 353.61 52.44 354.45 52.42 355.26 52.38 356.08 52.32 356.88 52.22 357.68 52.12 358.47 51.97 359.24 51.82 360 51.63 360.77 51.43 361.52 51.19 362.27 50.92 363 50.65 363.73 50.34 364.21 50.13 364.97 49.79 365.69 49.43 366.41 49.05 367.11 48.66 367.79 48.24 368.46 47.8 369.1 47.35 369.74 46.87 293.42 46.79 293.42 5.93 353.52 5.93 369.34 5.53 368.69 5.07 368.03 4.63 367.35 4.2 366.66 3.79 365.96 3.41 365.23 3.04 364.49 2.7 363.73 2.37 363.65 2.34 362.91 2.03 362.16 1.75 361.41 1.49 360.65 1.26 359.89 1.05 359.11 .87 358.32 .72 357.54 .57 356.75 .47 355.95 .38 355.15 .32 354.34 .29 353.52 .27"/><rect x="408.33" y=".27" width="5.75" height="91.56"/><polygon points="532.98 41.31 489.67 41.31 489.67 46.97 527.22 46.97 527.2 47.73 527.16 48.54 527.1 49.36 527.03 50.16 526.95 50.97 526.84 51.77 526.72 52.56 526.58 53.35 526.43 54.13 526.27 54.91 526.08 55.67 525.89 56.43 525.67 57.2 525.43 57.95 525.19 58.7 524.93 59.45 524.65 60.19 524.36 60.92 524.05 61.65 523.93 61.91 523.6 62.66 523.24 63.39 522.87 64.12 522.5 64.83 522.11 65.55 521.71 66.24 521.29 66.93 520.87 67.61 520.44 68.28 519.98 68.93 519.52 69.58 519.04 70.22 518.56 70.84 518.06 71.46 517.55 72.07 517.02 72.68 516.49 73.26 515.94 73.85 515.38 74.42 515.19 74.61 514.62 75.17 514.03 75.71 513.44 76.24 512.83 76.76 512.22 77.27 511.6 77.76 510.97 78.25 510.32 78.71 509.67 79.17 509.01 79.62 508.34 80.05 507.65 80.47 506.97 80.88 506.27 81.28 505.55 81.66 504.84 82.03 504.11 82.4 503.37 82.74 502.62 83.08 501.9 83.38 501.16 83.66 500.42 83.94 499.67 84.19 498.92 84.43 498.16 84.65 497.39 84.87 496.63 85.06 495.86 85.24 495.08 85.4 494.29 85.55 493.51 85.68 492.72 85.8 491.92 85.89 491.11 85.99 490.31 86.05 489.49 86.11 488.68 86.14 487.85 86.17 487.02 86.18 508.65 86.49 509.37 86.11 510.06 85.7 510.75 85.3 511.43 84.88 512.11 84.45 512.78 84.01 513.44 83.55 514.08 83.1 514.71 82.62 515.34 82.14 515.96 81.63 516.57 81.13 517.17 80.61 517.76 80.08 518.35 79.55 518.92 78.99 519.49 78.43 519.53 78.38 520.09 77.82 520.64 77.23 521.18 76.65 521.69 76.05 522.21 75.46 522.71 74.85 523.2 74.23 523.68 73.6 524.16 72.95 524.62 72.31 525.06 71.65 525.5 70.98 525.93 70.3 526.36 69.63 526.77 68.93 527.16 68.23 527.56 67.53 527.93 66.8 528.3 66.07 528.65 65.33 529 64.59 529.33 63.84 529.63 63.15 529.93 62.42 530.22 61.68 530.48 60.94 530.74 60.2 530.98 59.45 531.21 58.7 531.42 57.94 531.62 57.17 531.81 56.4 531.99 55.62 532.15 54.85 532.29 54.06 532.42 53.27 532.54 52.49 532.65 51.69 532.73 50.88 532.82 50.08 532.87 49.26 532.92 48.44 532.96 47.62 532.98 46.8 532.98 45.96 532.98 41.31"/><polygon points="507.87 5.63 486.94 5.65 487.72 5.66 488.53 5.69 489.34 5.72 490.14 5.78 490.94 5.86 491.74 5.95 492.54 6.06 493.33 6.18 494.11 6.32 494.9 6.48 495.69 6.65 496.36 6.81 497.13 7 497.9 7.2 498.66 7.42 499.42 7.66 500.19 7.91 500.95 8.17 501.71 8.46 502.47 8.75 503.23 9.06 503.99 9.4 512.65 9.4 512.56 9.31 511.9 8.72 511.23 8.16 510.56 7.61 509.89 7.07 509.21 6.57 508.55 6.08 507.87 5.63"/><polygon points="487.02 0 486.98 0 486.15 .01 485.32 .02 484.51 .06 483.69 .11 482.88 .18 482.08 .25 481.28 .35 480.48 .44 479.68 .56 478.9 .69 478.11 .83 477.33 .99 476.56 1.17 475.78 1.36 475.02 1.55 474.26 1.77 473.51 1.99 472.75 2.23 472 2.49 471.26 2.75 470.52 3.04 469.79 3.34 469.06 3.65 469 3.67 468.23 4.01 467.5 4.35 466.76 4.71 466.03 5.08 465.31 5.46 464.6 5.86 463.91 6.25 463.21 6.65 462.52 7.08 461.85 7.51 461.19 7.95 460.53 8.41 459.89 8.86 459.24 9.34 458.62 9.82 458 10.32 457.38 10.82 456.79 11.33 456.19 11.85 455.6 12.39 455.03 12.94 454.47 13.5 453.95 14.03 453.4 14.61 452.85 15.19 452.33 15.79 451.81 16.39 451.3 17.01 450.81 17.63 450.32 18.26 449.86 18.89 449.39 19.55 448.94 20.2 448.5 20.86 448.07 21.54 447.65 22.22 447.24 22.91 446.85 23.61 446.47 24.32 446.09 25.03 445.73 25.76 445.38 26.5 445.04 27.24 444.7 27.99 444.42 28.68 444.12 29.41 443.83 30.15 443.56 30.89 443.31 31.63 443.06 32.38 442.83 33.13 442.62 33.89 442.41 34.66 442.24 35.43 442.06 36.21 441.9 36.98 441.76 37.77 441.63 38.56 441.51 39.34 441.4 40.14 441.31 40.95 441.23 41.75 441.17 42.56 441.13 43.39 441.09 44.21 441.07 45.03 441.05 45.87 441.05 45.96 441.05 46 441.07 46.83 441.09 47.66 441.13 48.47 441.17 49.29 441.23 50.1 441.32 50.9 441.4 51.71 441.51 52.5 441.63 53.3 441.76 54.09 441.9 54.87 442.06 55.65 442.22 56.42 442.41 57.2 442.62 57.96 442.83 58.72 443.06 59.48 443.3 60.23 443.55 60.98 443.82 61.72 444.11 62.46 444.39 63.2 444.7 63.92 444.7 63.94 445.04 64.68 445.38 65.43 445.73 66.15 446.09 66.88 446.47 67.6 446.85 68.3 447.24 68.99 447.66 69.68 448.08 70.36 448.51 71.04 448.95 71.7 449.4 72.36 449.87 73 450.35 73.64 450.83 74.26 451.32 74.88 451.84 75.5 452.36 76.1 452.9 76.7 453.43 77.28 453.99 77.85 454.56 78.43 454.56 78.43 455.13 79 455.7 79.55 456.28 80.1 456.88 80.62 457.49 81.15 458.1 81.66 458.72 82.16 459.35 82.64 459.98 83.11 460.63 83.58 461.28 84.03 461.95 84.47 462.62 84.9 463.3 85.33 463.99 85.74 464.69 86.13 465.4 86.51 466.11 86.89 466.83 87.25 467.57 87.61 468.31 87.94 469.06 88.28 469.07 88.28 469.8 88.58 470.54 88.87 471.28 89.15 472.02 89.41 472.77 89.66 473.52 89.89 474.28 90.11 475.04 90.32 475.81 90.52 476.58 90.7 477.36 90.87 478.13 91.02 478.92 91.16 479.72 91.28 480.51 91.4 481.31 91.5 482.1 91.59 482.92 91.66 483.73 91.72 484.55 91.77 485.37 91.81 486.2 91.82 487.02 91.83 487.77 91.83 488.59 91.81 489.4 91.77 490.23 91.72 491.03 91.66 491.84 91.59 492.64 91.51 493.43 91.41 494.23 91.3 495.02 91.16 495.81 91.02 496.58 90.87 497.36 90.7 498.13 90.52 498.9 90.33 499.66 90.11 500.42 89.9 501.17 89.66 501.93 89.41 502.68 89.15 503.42 88.87 504.16 88.58 504.9 88.28 504.98 88.24 505.73 87.91 506.47 87.57 507.21 87.22 507.94 86.86 508.65 86.49 487.02 86.18 486.95 86.18 486.11 86.17 485.29 86.14 484.47 86.11 483.66 86.05 482.84 85.98 482.03 85.89 481.23 85.8 480.45 85.68 479.65 85.55 478.87 85.39 478.1 85.24 477.32 85.06 476.56 84.87 475.8 84.65 475.03 84.43 474.28 84.19 473.54 83.94 472.8 83.66 472.06 83.38 471.34 83.08 471.13 82.98 470.38 82.65 469.64 82.29 468.91 81.93 468.19 81.55 467.48 81.17 466.78 80.76 466.09 80.36 465.41 79.93 464.74 79.5 464.07 79.05 463.43 78.59 462.78 78.13 462.15 77.64 461.53 77.15 460.92 76.64 460.32 76.12 459.72 75.6 459.15 75.05 458.57 74.5 458.37 74.3 457.81 73.73 457.27 73.14 456.74 72.56 456.23 71.95 455.71 71.34 455.22 70.72 454.75 70.08 454.27 69.45 453.82 68.79 453.36 68.13 452.93 67.45 452.52 66.77 452.11 66.08 451.71 65.39 451.32 64.68 450.95 63.96 450.6 63.22 450.24 62.48 449.9 61.74 449.84 61.59 449.55 60.86 449.27 60.13 449 59.39 448.75 58.65 448.51 57.9 448.29 57.15 448.09 56.39 447.9 55.61 447.72 54.85 447.57 54.06 447.42 53.29 447.29 52.49 447.17 51.7 447.08 50.89 446.99 50.09 446.92 49.27 446.87 48.46 446.84 47.63 446.82 46.8 446.8 45.96 446.8 45.78 446.82 44.95 446.84 44.13 446.89 43.3 446.93 42.48 447.01 41.67 447.1 40.86 447.2 40.06 447.32 39.27 447.45 38.47 447.6 37.7 447.76 36.92 447.94 36.15 448.13 35.39 448.34 34.62 448.56 33.87 448.8 33.12 449.06 32.38 449.32 31.64 449.61 30.91 449.9 30.19 450 29.97 450.33 29.23 450.69 28.49 451.05 27.75 451.43 27.04 451.81 26.32 452.22 25.63 452.62 24.94 453.05 24.26 453.48 23.59 453.94 22.92 454.39 22.28 454.87 21.63 455.34 21 455.83 20.38 456.34 19.76 456.86 19.17 457.38 18.57 457.93 17.98 458.48 17.41 458.73 17.16 459.3 16.61 459.89 16.08 460.48 15.55 461.08 15.03 461.7 14.53 462.32 14.04 462.95 13.56 463.6 13.09 464.25 12.64 464.91 12.2 465.59 11.76 466.27 11.34 466.96 10.94 467.66 10.54 468.38 10.16 469.11 9.79 469.83 9.43 470.58 9.09 471.34 8.75 472.05 8.46 472.79 8.17 473.53 7.9 474.28 7.64 475.03 7.41 475.8 7.18 476.56 6.96 477.32 6.77 478.1 6.6 478.87 6.43 479.66 6.29 480.45 6.15 481.23 6.03 482.03 5.93 482.84 5.84 483.64 5.77 484.47 5.72 485.28 5.69 486.1 5.66 486.94 5.65 507.87 5.63 507.2 5.18 506.52 4.76 505.84 4.35 505.16 3.98 504.47 3.63 503.79 3.28 503.1 2.97 502.42 2.67 501.72 2.4 501.03 2.15 500.34 1.91 499.73 1.74 498.98 1.53 498.22 1.32 497.45 1.14 496.68 .98 495.9 .82 495.13 .68 494.34 .55 493.54 .43 492.74 .33 491.94 .24 491.13 .17 490.32 .11 489.51 .06 488.69 .02 487.85 0 487.02 0"/><polygon points="604.84 .18 599.91 .18 557.14 91.83 562.89 91.83 566.35 84.63 639.5 84.63 568.45 78.98 602.38 7.02 604.84 .18"/><polygon points="604.84 .18 602.38 7.02 637.3 78.98 568.45 78.98 639.5 84.63 642.95 91.83 648.8 91.83 604.84 .18"/><rect x="684.17" y="38.5" width="17.56" height="17.54"/></svg>